<svg width="78" height="24" viewBox="0 0 78 24" fill="none" xmlns="http://www.w3.org/2000/svg">
<path d="M71.399 0L54.7965 23.7857H59.8939L76.5826 0H71.399Z" fill="white"/>
<path d="M60.4247 0L65.3097 7.00885L62.761 10.8319L55.2212 0H60.4247Z" fill="url(#paint0_linear_18_812)"/>
<path d="M71.8938 23.7876L66.4779 16.0354L69.0266 12.3186L76.9912 23.7876H71.8938Z" fill="url(#paint1_linear_18_812)"/>
<path fill-rule="evenodd" clip-rule="evenodd" d="M48.8495 0H53.3097V23.7857H48.8495V22.8973C47.5614 23.6003 46.0825 24 44.5098 24C39.5167 24 35.469 19.9706 35.469 15C35.469 10.0294 39.5167 6 44.5098 6C46.0825 6 47.5614 6.39974 48.8495 7.1027V0ZM44.4622 20.0499C47.2902 20.0499 49.5827 17.7678 49.5827 14.9526C49.5827 12.1374 47.2902 9.85525 44.4622 9.85525C41.6342 9.85525 39.3417 12.1374 39.3417 14.9526C39.3417 17.7678 41.6342 20.0499 44.4622 20.0499Z" fill="white"/>
<path d="M35.9127 0L19.3274 23.7857H24.5269L41.0962 0H35.9127Z" fill="white"/>
<path d="M24.5309 0L29.7345 7.22124L26.8672 11.2566L19.115 0H24.5309Z" fill="url(#paint2_linear_18_812)"/>
<path fill-rule="evenodd" clip-rule="evenodd" d="M13.3805 0H17.8407V23.7857H13.3805V22.8973C12.0924 23.6003 10.6135 24 9.04084 24C4.04772 24 0 19.9706 0 15C0 10.0294 4.04772 6 9.04084 6C10.6135 6 12.0924 6.39974 13.3805 7.1027V0ZM8.99323 20.0499C11.8212 20.0499 14.1137 17.7678 14.1137 14.9526C14.1137 12.1374 11.8212 9.85525 8.99323 9.85525C6.16526 9.85525 3.87275 12.1374 3.87275 14.9526C3.87275 17.7678 6.16526 20.0499 8.99323 20.0499Z" fill="white"/>
<defs>
<linearGradient id="paint0_linear_18_812" x1="59.2566" y1="1.48673" x2="66.2495" y2="9.92884" gradientUnits="userSpaceOnUse">
<stop stop-color="white"/>
<stop offset="1" stop-color="white" stop-opacity="0.55"/>
</linearGradient>
<linearGradient id="paint1_linear_18_812" x1="73.062" y1="21.9823" x2="64.4702" y2="10.3997" gradientUnits="userSpaceOnUse">
<stop stop-color="#6966FF"/>
<stop offset="1" stop-color="#6966FF" stop-opacity="0.36"/>
</linearGradient>
<linearGradient id="paint2_linear_18_812" x1="23.3628" y1="1.54503" x2="30.6121" y2="10.4096" gradientUnits="userSpaceOnUse">
<stop stop-color="white"/>
<stop offset="1" stop-color="white" stop-opacity="0.55"/>
</linearGradient>
</defs>
</svg>
