<?xml version="1.0" standalone="no"?>
<!DOCTYPE svg PUBLIC "-//W3C//DTD SVG 20010904//EN"
 "http://www.w3.org/TR/2001/REC-SVG-20010904/DTD/svg10.dtd">
<svg version="1.0" xmlns="http://www.w3.org/2000/svg"
 width="371.000000pt" height="389.000000pt" viewBox="0 0 371.000000 389.000000"
 preserveAspectRatio="xMidYMid meet">

<g transform="translate(0.000000,389.000000) scale(0.100000,-0.100000)"
fill="#000000" stroke="none">
<path d="M2511 3749 c-7 -22 -10 -175 -9 -478 1 -245 4 -412 8 -371 5 67 6 70
10 30 4 -38 9 -46 28 -48 13 -2 39 -19 57 -38 18 -19 40 -34 48 -34 18 0 47
-32 47 -53 0 -9 5 -17 10 -17 6 0 10 -6 10 -14 0 -8 7 -16 15 -20 8 -3 14 -10
13 -15 -2 -5 1 -8 5 -8 5 1 15 -10 23 -25 8 -16 21 -28 29 -28 8 0 15 -5 15
-12 0 -8 3 -8 9 -3 19 20 24 144 23 633 0 385 -3 506 -12 517 -10 12 -42 15
-165 15 l-153 0 -11 -31z"/>
<path d="M2502 2600 c0 -14 2 -19 5 -12 2 6 2 18 0 25 -3 6 -5 1 -5 -13z"/>
<path d="M2852 2495 c0 -16 2 -22 5 -12 2 9 2 23 0 30 -3 6 -5 -1 -5 -18z"/>
<path d="M802 1665 c-1 -159 1 -300 4 -313 4 -13 40 -45 88 -79 44 -31 102
-72 129 -91 l47 -34 0 333 c0 183 -2 330 -5 328 -2 -3 -5 -55 -6 -117 -1 -95
-3 -109 -15 -97 -8 7 -14 18 -14 24 0 13 -67 81 -80 81 -6 0 -10 7 -10 15 0 9
-11 27 -25 41 -14 14 -25 30 -25 35 0 13 -25 39 -38 39 -5 0 -14 15 -20 33
l-10 32 -3 -30 c-1 -18 -5 -6 -9 30 -4 33 -7 -70 -8 -230z"/>
<path d="M1046 681 c13 -25 24 -52 24 -58 0 -7 5 -13 11 -13 5 0 8 -4 5 -9 -3
-5 5 -33 18 -62 13 -30 27 -69 31 -87 4 -19 11 -29 17 -26 7 5 9 -2 4 -20 -4
-18 -2 -34 6 -43 11 -14 10 -15 -9 -9 -50 16 49 -65 126 -103 213 -104 490
-155 720 -132 137 14 172 21 165 32 -3 5 2 9 10 9 28 0 17 18 -24 41 -22 12
-42 31 -45 40 -4 10 -22 34 -41 53 -18 18 -34 39 -34 45 0 16 -22 53 -40 68
-10 8 -51 12 -115 13 -272 1 -483 68 -736 232 l-116 76 23 -47z"/>
</g>
</svg>
